<?xml version="1.0" encoding="UTF-8"?>
<!-- Created with Inkscape (http://www.inkscape.org/) -->
<svg width="201.91mm" height="62.317mm" version="1.1" viewBox="0 0 201.91 62.317" xmlns="http://www.w3.org/2000/svg" xmlns:cc="http://creativecommons.org/ns#" xmlns:dc="http://purl.org/dc/elements/1.1/" xmlns:rdf="http://www.w3.org/1999/02/22-rdf-syntax-ns#">
 <metadata>
  <rdf:RDF>
   <cc:Work rdf:about="">
    <dc:format>image/svg+xml</dc:format>
    <dc:type rdf:resource="http://purl.org/dc/dcmitype/StillImage"/>
    <dc:title/>
   </cc:Work>
  </rdf:RDF>
 </metadata>
 <g transform="translate(-5.9297 -124.92)">
  <g transform="translate(1.2913 64.202)" stroke-width=".1178">
   <path d="m5.3722 122.29-0.73377-0.74036 0.00137-29.679 0.00137-29.679 1.4648-1.4779h59.386l1.3473 1.3615v59.49l-1.4789 1.4657h-59.255zm36.611-12.444v-3.4072l-0.30498-0.36244-0.30498-0.36245h-11.098l-0.3304 0.31655-0.3304 0.31654v6.9062h12.369zm0-10.906v-3.2395h-0.2945c-0.16198 0-0.2945-0.03809-0.2945-0.08465s0.2765-0.36462 0.61443-0.70681l0.61443-0.62216h7.6672l2.4728-2.4758c1.7831-1.7853 2.5385-2.467 2.7084-2.4444 0.2331 0.03107 0.23592-0.04539 0.26597-7.2116l0.03037-7.243-5.4777-5.4814h-29.115l-5.3441 5.4011v11.091h12.251v-3.7696c0-3.6911-0.0049-3.7696-0.2356-3.7696-0.34869 0-0.2978-0.10631 0.37883-0.79146l0.61443-0.62216h13.798l0.69943 0.70681c0.66906 0.67611 0.68553 0.70681 0.37917 0.70681h-0.32027v7.5853l-0.63309 0.6608h-7.6701l-5.4796 5.4759v10.074h12.369zm33.128 23.351-0.73286-0.73943v-59.372l1.4789-1.4657h59.324l1.3961 1.3317v59.52l-1.4788 1.4657h-59.255zm36.61-12.445v-3.4072l-0.60995-0.72489h-11.202l-0.27856 0.30058-0.27856 0.30057v6.9382h12.369zm0-10.906v-3.2395h-0.2945c-0.16198 0-0.2945-0.03809-0.2945-0.08465s0.27649-0.36462 0.61443-0.70681l0.61443-0.62216h7.6672l2.4717-2.4738c1.7588-1.7603 2.5485-2.4738 2.7378-2.4738h0.26611v-14.429l-5.4759-5.4796h-29.097l-5.3618 5.358v11.134l12.31 1.19e-4 -0.03265-3.7697c-0.03172-3.6629-0.03924-3.7697-0.26505-3.7697-0.34526 0-0.29332-0.10761 0.38203-0.79146l0.61443-0.62216h13.798l0.69943 0.70681c0.66906 0.67611 0.68553 0.70681 0.37917 0.70681h-0.32027v7.5853l-0.31654 0.3304-0.31655 0.3304h-7.6701l-5.4796 5.4759v10.074h12.369zm33.364 23.351-0.73286-0.73943v-59.372l1.4789-1.4657h59.373l1.3473 1.3615v59.49l-1.4789 1.4657h-59.255zm36.61-12.477v-3.4392l-0.31655-0.3304-0.31654-0.3304-11.088 8e-3 -0.32395 0.28513-0.32396 0.28513v6.9616h12.369zm0-10.874v-3.2395h-0.29451c-0.16197 0-0.2945-0.03809-0.2945-0.08465s0.27649-0.36462 0.61443-0.70681l0.61444-0.62216h7.6672l2.4717-2.4738c1.7588-1.7603 2.5485-2.4738 2.7378-2.4738h0.2661v-14.429l-5.4759-5.4796h-29.101l-5.3626 5.3664-0.0272 5.5629-0.0272 5.5629 12.369 1.17e-4 -0.0326-3.7697c-0.0317-3.6629-0.0392-3.7697-0.26505-3.7697-0.34527 0-0.29333-0.10761 0.38202-0.79146l0.61444-0.62216h13.798l0.69944 0.70681c0.66905 0.67611 0.68552 0.70681 0.37916 0.70681h-0.32026v7.5853l-0.63309 0.6608h-7.6701l-5.4796 5.4759v10.074h12.369z" fill="#f1ca00"/>
   <path d="m5.3722 122.29-0.73377-0.74036 0.00137-29.679 0.00137-29.679 1.4648-1.4779h59.386l1.3473 1.3615v59.49l-1.4789 1.4657h-59.255zm36.611-12.444v-3.4072l-0.30498-0.36244-0.30498-0.36245h-11.098l-0.3304 0.31655-0.3304 0.31654v6.9062h12.369zm0-10.906v-3.2395h-0.2945c-0.16198 0-0.2945-0.03809-0.2945-0.08465s0.2765-0.36462 0.61443-0.70681l0.61443-0.62216h7.6672l2.4728-2.4758c1.7831-1.7853 2.5385-2.467 2.7084-2.4444 0.2331 0.03107 0.23592-0.04539 0.26597-7.2116l0.03037-7.243-5.4777-5.4814h-29.115l-5.3441 5.4011v11.091h12.251v-3.7696c0-3.6911-0.0049-3.7696-0.2356-3.7696-0.34869 0-0.2978-0.10631 0.37883-0.79146l0.61443-0.62216h13.798l0.69943 0.70681c0.66906 0.67611 0.68553 0.70681 0.37917 0.70681h-0.32027v7.5853l-0.63309 0.6608h-7.6701l-5.4796 5.4759v10.074h12.369zm33.187 23.41-0.67367-0.68077v-59.542h1.2958v59.372h59.372v-60.719l0.70681 0.69943 0.7068 0.69943v59.386l-1.4788 1.4657h-59.255zm69.915-0.0587-0.73286-0.73943v-59.372l1.4789-1.4657h59.373l1.3473 1.3615v59.49l-1.4789 1.4657h-59.255zm36.61-12.477v-3.4392l-0.31655-0.3304-0.31654-0.3304-11.088 8e-3 -0.32395 0.28513-0.32396 0.28513v6.9616h12.369zm0-10.874v-3.2395h-0.29451c-0.16197 0-0.2945-0.03809-0.2945-0.08465s0.27649-0.36462 0.61443-0.70681l0.61444-0.62216h7.6672l2.4717-2.4738c1.7588-1.7603 2.5485-2.4738 2.7378-2.4738h0.2661v-14.429l-5.4759-5.4796h-29.101l-5.3626 5.3664-0.0272 5.5629-0.0272 5.5629 12.369 1.17e-4 -0.0326-3.7697c-0.0317-3.6629-0.0392-3.7697-0.26505-3.7697-0.34527 0-0.29333-0.10761 0.38202-0.79146l0.61444-0.62216h13.798l0.69944 0.70681c0.66905 0.67611 0.68552 0.70681 0.37916 0.70681h-0.32026v7.5853l-0.63309 0.6608h-7.6701l-5.4796 5.4759v10.074h12.369zm-103.21 20.688c-1.7902-1.1353-1.6117-3.7952 0.31737-4.729 0.43457-0.21037 0.68774-0.25033 1.3493-0.21294 0.99241 0.0561 1.6302 0.44559 2.1765 1.3292 0.29895 0.48357 0.35466 0.69122 0.34667 1.2922-0.01015 0.76344-0.34538 1.6474-0.51851 1.3673-0.06725-0.10881-0.25426-0.0204-0.6967 0.3293-0.64181 0.50733-1.3445 0.70257-2.033 0.56487-0.29572-0.0591-0.33934-0.0432-0.23277 0.0852 0.1228 0.14796 0.0706 0.31304-0.09899 0.31304-0.04131 0-0.31573-0.1526-0.60984-0.33912zm51.32 0.15424c-1.2011-0.6234-1.8268-2.1772-1.3637-3.3867 0.54358-1.4198 2.3265-2.1432 3.7208-1.5098 0.54657 0.2483 1.1883 0.93333 1.4411 1.5384 0.31009 0.74213-0.0135 2.5529-0.39906 2.2329-0.12003-0.0996-0.25902-0.0406-0.59139 0.25126-0.63883 0.5609-1.1601 0.7431-1.9233 0.67226-0.35681-0.0331-0.58249-0.0348-0.50151-4e-3 0.15719 0.0603 0.20715 0.39076 0.0589 0.38955-0.0486-3.6e-4 -0.24738-0.0833-0.44175-0.18416zm-29.835-5.1461c-0.20433-0.21082-0.45092-0.60839-0.54799-0.88352l-0.17649-0.50021h12.477l9e-3 -3.4457c8e-3 -3.0215 0.0285-3.3949 0.16774-3.0334 0.1197 0.31082 0.16098 1.2837 0.16774 3.9527l9e-3 3.5404-0.38846 0.37652-0.38846 0.37651h-10.957l-0.3715-0.38329zm0-11.073c-0.20433-0.21081-0.45092-0.60839-0.54799-0.88351l-0.17649-0.50022h12.477v-6.4791h-0.2945c-0.16198 0-0.2945-0.04157-0.2945-0.09238s0.27997-0.36887 0.62216-0.70681l0.62216-0.61443h7.6518l2.4717-2.4738c1.7588-1.7603 2.5485-2.4738 2.7378-2.4738h0.26611l0.01-7.2153c8e-3 -6.3831 0.0292-7.1706 0.17905-6.8275 0.1416 0.32405 0.16899 1.6025 0.16654 7.7746l-3e-3 7.3867-5.5337 5.5373-7.4822-0.02958-0.38285 0.36186-0.38286 0.36186-5.9e-4 3.2459-5.9e-4 3.2459-0.35883 0.38286-0.35883 0.38285h-11.015l-0.3715-0.38329zm-13.843-16.199c-0.24484-0.25555-0.67452-1.1457-0.67452-1.3973 0-0.02425 2.7963-0.04406 6.214-0.04403l6.214 6e-5 -0.03265-3.7697c-0.03172-3.6629-0.03924-3.7697-0.26505-3.7697-0.35185 0-0.28902-0.12884 0.38976-0.79918l0.62216-0.61443h13.783l0.69943 0.70681c0.66906 0.67611 0.68553 0.70681 0.37917 0.70681-0.28082 0-0.32027 0.04578-0.32027 0.37166 0 0.3526-0.011 0.36166-0.21543 0.1767-0.19529-0.17673-0.85949-0.19496-7.105-0.19496h-6.8895l-0.63309 0.6608v7.5391l-0.77692 0.75303h-11.077zm-7.483-18.773c-1.6256-0.80466-1.8832-3.2147-0.47092-4.4055 0.61781-0.52092 1.1082-0.67403 1.998-0.62376 0.97125 0.05488 1.6148 0.45112 2.1569 1.328 0.29895 0.48358 0.35466 0.69123 0.34667 1.2922-0.01125 0.84623-0.32013 1.5792-0.57601 1.3668-0.12182-0.1011-0.22984-0.06031-0.46615 0.176-0.51622 0.51622-1.31 0.80251-2.0011 0.72175-0.32946-0.0385-0.54602-0.0316-0.48123 0.01534 0.14522 0.10521 0.20912 0.37988 0.08835 0.37975-0.04859-5.1e-5 -0.3161-0.11283-0.59446-0.25061zm51.161 0.05496c-0.57122-0.30114-0.89672-0.64966-1.1925-1.2768-0.86433-1.8329 0.41654-3.8305 2.4541-3.8274 1.7787 0.0027 3.0686 1.6188 2.6272 3.2918-0.15848 0.60077-0.41377 1.0548-0.41377 0.73589 0-0.24906-0.29937-0.15176-0.6459 0.20995-0.45513 0.47506-1.2223 0.75469-1.8702 0.68167-0.45962-0.05181-0.50994-0.03413-0.45885 0.16123 0.0691 0.2644-0.0343 0.2693-0.50021 0.02367z" fill="#006af0"/>
   <path d="m5.3722 122.29-0.73377-0.74036 0.00137-29.679 0.00137-29.679 1.4648-1.4779h59.386l1.3473 1.3615v59.49l-1.4789 1.4657h-59.255zm36.611-12.444v-3.4072l-0.30498-0.36244-0.30498-0.36245h-11.098l-0.3304 0.31655-0.3304 0.31654v6.9062h12.369zm0-10.906v-3.2395h-0.2945c-0.16198 0-0.2945-0.03809-0.2945-0.08465s0.2765-0.36462 0.61443-0.70681l0.61443-0.62216h7.6672l2.4728-2.4758c1.7831-1.7853 2.5385-2.467 2.7084-2.4444 0.2331 0.03107 0.23592-0.04539 0.26597-7.2116l0.03037-7.243-5.4777-5.4814h-29.115l-5.3441 5.4011v11.091h12.251v-3.7696c0-3.6911-0.0049-3.7696-0.2356-3.7696-0.34869 0-0.2978-0.10631 0.37883-0.79146l0.61443-0.62216h13.798l0.69943 0.70681c0.66906 0.67611 0.68553 0.70681 0.37917 0.70681h-0.32027v7.5853l-0.63309 0.6608h-7.6701l-5.4796 5.4759v10.074h12.369zm33.187 23.41-0.67367-0.68077v-59.542h1.2958v59.372h59.372v-60.719l0.70681 0.69943 0.7068 0.69943v59.386l-1.4788 1.4657h-59.255zm69.977-9.4e-4 -0.67818-0.67302 1e-3 -29.774 4.6e-4 -29.774h1.2958v59.372h59.372v-60.719l1.4136 1.3989v59.386l-1.4789 1.4657-59.248-8e-3 -0.67817-0.67303zm-66.663-2.7202c-1.7902-1.1353-1.6117-3.7952 0.31737-4.729 0.43457-0.21037 0.68774-0.25033 1.3493-0.21294 0.99241 0.0561 1.6302 0.44559 2.1765 1.3292 0.29895 0.48357 0.35466 0.69122 0.34667 1.2922-0.01015 0.76344-0.34538 1.6474-0.51851 1.3673-0.06725-0.10881-0.25426-0.0204-0.6967 0.3293-0.64181 0.50733-1.3445 0.70257-2.033 0.56487-0.29572-0.0591-0.33934-0.0432-0.23277 0.0852 0.1228 0.14796 0.0706 0.31304-0.09899 0.31304-0.04131 0-0.31573-0.1526-0.60984-0.33912zm51.32 0.15424c-1.2011-0.6234-1.8268-2.1772-1.3637-3.3867 0.54358-1.4198 2.3265-2.1432 3.7208-1.5098 0.54657 0.2483 1.1883 0.93333 1.4411 1.5384 0.31009 0.74213-0.0135 2.5529-0.39906 2.2329-0.12003-0.0996-0.25902-0.0406-0.59139 0.25126-0.63883 0.5609-1.1601 0.7431-1.9233 0.67226-0.35681-0.0331-0.58249-0.0348-0.50151-4e-3 0.15719 0.0603 0.20715 0.39076 0.0589 0.38955-0.0486-3.6e-4 -0.24738-0.0833-0.44175-0.18416zm19.278-0.34927c-0.21726-0.0943-0.45581-0.13677-0.5301-0.0943-0.0743 0.0425-0.0965 0.0346-0.0494-0.0175s-0.0722-0.2745-0.26506-0.49419c-0.19288-0.2197-0.35071-0.45946-0.35071-0.53279 0-0.0733-0.0304-0.10292-0.0676-0.0657-0.0372 0.0372 0.0137 0.22482 0.1131 0.417s0.14305 0.38706 0.097 0.43307c-0.046 0.046-0.0112 0.066 0.0774 0.0444s0.17813 0.0667 0.19899 0.19633c0.0789 0.49008-0.75473-0.61933-0.94415-1.2564-0.23622-0.79456-0.14525-1.4551 0.29629-2.1514 0.503-0.79314 1.1527-1.171 2.1061-1.2249 1.3776-0.0778 2.4046 0.64139 2.7884 1.9527 0.16637 0.56843 0.16427 0.67325-0.0259 1.2958l-0.20694 0.67735-0.0804-0.4123c-0.0442-0.22677-0.0874-0.31969-0.0959-0.20649-0.0242 0.3205-0.84806 1.1625-1.3702 1.4003-0.56598 0.25776-1.1557 0.27138-1.6908 0.039zm51.202 0.0643c-0.50869-0.15334-1.0213-0.57438-1.2681-1.0416-0.12559-0.23775-0.23069-0.37341-0.23355-0.30146-3e-3 0.072 0.12572 0.32375 0.28575 0.55956 0.16002 0.23581 0.23305 0.42874 0.16227 0.42874-0.0812 0-0.0698 0.076 0.031 0.20615 0.11937 0.15415 0.0891 0.14672-0.12007-0.0294-0.66453-0.55972-1.0261-2.0087-0.71095-2.849 0.41047-1.0944 1.4149-1.8041 2.5531-1.8041 1.1409 0 1.9587 0.52853 2.4607 1.5903 0.30921 0.65406 0.34364 1.0665 0.14751 1.767-0.12663 0.45228-0.13625 0.45962-0.23977 0.18283l-0.10785-0.28837-0.17339 0.34727c-0.49891 0.99922-1.7395 1.5478-2.7866 1.2322zm-100.31-4.8611c-0.20433-0.21082-0.45092-0.60839-0.54799-0.88352l-0.17649-0.50021h12.477l9e-3 -3.4457c8e-3 -3.0215 0.0285-3.3949 0.16774-3.0334 0.1197 0.31082 0.16098 1.2837 0.16774 3.9527l9e-3 3.5404-0.38846 0.37652-0.38846 0.37651h-10.957l-0.3715-0.38329zm70.034 0.0457c-0.33477-0.28169-0.48097-0.54627-0.63001-1.1401l-0.0726-0.28931h12.395l5e-3 -3.3868c4e-3 -3.0749 0.0205-3.3503 0.1767-2.9904 0.13817 0.31823 0.1721 1.0862 0.1721 3.8949v3.4985l-0.36113 0.346-0.36115 0.34599-10.979 0.01-0.34396-0.28942zm-70.034-11.119c-0.20433-0.21081-0.45092-0.60839-0.54799-0.88351l-0.17649-0.50022h12.477v-6.4791h-0.2945c-0.16198 0-0.2945-0.04157-0.2945-0.09238s0.27997-0.36887 0.62216-0.70681l0.62216-0.61443h7.6518l2.4717-2.4738c1.7588-1.7603 2.5485-2.4738 2.7378-2.4738h0.26611l0.01-7.2153c8e-3 -6.3831 0.0292-7.1706 0.17905-6.8275 0.1416 0.32405 0.16899 1.6025 0.16654 7.7746l-3e-3 7.3867-5.5337 5.5373-7.4822-0.02958-0.38285 0.36186-0.38286 0.36186-5.9e-4 3.2459-5.9e-4 3.2459-0.35883 0.38286-0.35883 0.38285h-11.015l-0.3715-0.38329zm69.985 4.7e-4c-0.31396-0.33327-0.62792-0.97522-0.62792-1.284 0-0.0551 2.7831-0.10022 6.1846-0.10022h6.1846v-6.4791h-0.29451c-0.16197 0-0.2945-0.04157-0.2945-0.09238s0.27998-0.36887 0.62216-0.70681l0.62217-0.61443h7.6518l2.4717-2.4738c1.7588-1.7603 2.5485-2.4738 2.7378-2.4738h0.2661l9e-3 -7.2153c8e-3 -6.1837 0.0317-7.1564 0.16774-6.803 0.12672 0.32904 0.16059 1.8993 0.16774 7.7758l9e-3 7.3635-5.4796 5.4759h-7.5783l-0.72489 0.60995v6.6475l-0.38846 0.37651-0.38847 0.37651h-10.957l-0.36071-0.38285zm-83.828-16.199c-0.24484-0.25555-0.67452-1.1457-0.67452-1.3973 0-0.02425 2.7963-0.04406 6.214-0.04403l6.214 6e-5 -0.03265-3.7697c-0.03172-3.6629-0.03924-3.7697-0.26505-3.7697-0.35185 0-0.28902-0.12884 0.38976-0.79918l0.62216-0.61443h13.783l0.69943 0.70681c0.66906 0.67611 0.68553 0.70681 0.37917 0.70681-0.28082 0-0.32027 0.04578-0.32027 0.37166 0 0.3526-0.011 0.36166-0.21543 0.1767-0.19529-0.17673-0.85949-0.19496-7.105-0.19496h-6.8895l-0.63309 0.6608v7.5391l-0.77692 0.75303h-11.077zm70.04-0.05723c-0.29259-0.30622-0.74062-1.1166-0.74062-1.3397 0-0.02448 2.7963-0.04449 6.214-0.04446l6.214 6e-5 -0.0326-3.7697c-0.0317-3.6629-0.0392-3.7697-0.26505-3.7697-0.35186 0-0.28903-0.12884 0.38975-0.79918l0.62216-0.61443h13.783l0.69944 0.70681c0.66905 0.67611 0.68552 0.70681 0.37916 0.70681-0.26308 0-0.32026 0.05258-0.32026 0.2945 0 0.28944-0.17745 0.4101-0.25609 0.17414-0.0267-0.08015-2.3592-0.11994-6.9818-0.1191l-6.9416 0.0013-0.33177 0.31784-0.33175 0.31784v7.5668l-0.77692 0.75303h-10.957l-0.36581-0.38286zm-77.523-18.716c-1.6256-0.80466-1.8832-3.2147-0.47092-4.4055 0.61781-0.52092 1.1082-0.67403 1.998-0.62376 0.97125 0.05488 1.6148 0.45112 2.1569 1.328 0.29895 0.48358 0.35466 0.69123 0.34667 1.2922-0.01125 0.84623-0.32013 1.5792-0.57601 1.3668-0.12182-0.1011-0.22984-0.06031-0.46615 0.176-0.51622 0.51622-1.31 0.80251-2.0011 0.72175-0.32946-0.0385-0.54602-0.0316-0.48123 0.01534 0.14522 0.10521 0.20912 0.37988 0.08835 0.37975-0.04859-5.1e-5 -0.3161-0.11283-0.59446-0.25061zm51.161 0.05496c-0.57122-0.30114-0.89672-0.64966-1.1925-1.2768-0.86433-1.8329 0.41654-3.8305 2.4541-3.8274 1.7787 0.0027 3.0686 1.6188 2.6272 3.2918-0.15848 0.60077-0.41377 1.0548-0.41377 0.73589 0-0.24906-0.29937-0.15176-0.6459 0.20995-0.45513 0.47506-1.2223 0.75469-1.8702 0.68167-0.45962-0.05181-0.50994-0.03413-0.45885 0.16123 0.0691 0.2644-0.0343 0.2693-0.50021 0.02367zm19.341-0.32833c-0.52457-0.18708-0.85336-0.45656-1.1572-0.94844-0.12007-0.19437-0.2185-0.29894-0.21875-0.23236 0 0.06657 0.0822 0.23895 0.18309 0.38306 0.10094 0.14411 0.1512 0.31433 0.11168 0.37827-0.04 0.0648 4e-3 0.08722 0.0991 0.05066 0.094-0.03607 0.20591-9e-3 0.24868 0.06025 0.0428 0.06921 0.0185 0.12583-0.0539 0.12583s-0.0974 0.06626-0.0554 0.14725c0.042 0.08099-0.11142-0.04803-0.3409-0.28671-0.58895-0.61257-0.85221-1.5496-0.66022-2.3499 0.30193-1.2586 1.3504-2.1049 2.6077-2.1049 1.2965 0 2.2806 0.73474 2.6431 1.9732 0.16617 0.56773 0.16417 0.67402-0.0243 1.2958-0.19466 0.64212-0.20923 0.65898-0.27989 0.32395-0.0686-0.32527-0.0814-0.33317-0.16091-0.09922-0.13569 0.39939-1.0669 1.1877-1.567 1.3265-0.58151 0.16147-0.82199 0.1539-1.3748-0.04327zm50.978-0.04532c-0.26375-0.12363-0.64807-0.42925-0.85406-0.67915s-0.37453-0.3924-0.37453-0.31667c0 0.07573 0.0566 0.17268 0.12584 0.21546 0.0692 0.04277 0.0963 0.15468 0.0602 0.24867-0.0361 0.094-0.0168 0.14078 0.0427 0.10396 0.11953-0.07388 0.28136 0.13339 0.31864 0.40811 0.0132 0.09719-0.17452-0.04461-0.41713-0.3151-0.93612-1.0437-0.94768-2.3989-0.0296-3.4714 1.2281-1.4348 3.536-1.1871 4.4001 0.4721 0.35787 0.68722 0.41509 1.2943 0.19582 2.0775-0.12451 0.44474-0.13781 0.45548-0.23665 0.19127l-0.10473-0.27994-0.26509 0.39336c-0.65984 0.97914-1.9136 1.3962-2.8616 0.95183z" fill="#ac8e00"/>
   <path d="m5.4359 122.28-0.6769-0.7312-0.00137-29.732-0.00137-29.732 1.3492-1.3634h59.268l1.4657 1.4789v59.372l-1.4789 1.4657-59.248-0.0276zm36.547-12.459v-3.4401l-0.37651-0.38846-0.37651-0.38847h-10.933l-0.40052 0.40053-0.40052 0.40052v6.856h12.487zm0-10.945v-3.3122l-0.2945 0.0563c-0.16198 0.03096-0.2945 0.01844-0.2945-0.02782 0-0.04627 0.29317-0.35698 0.65149-0.69047l0.65149-0.60635h7.5932l2.4128-2.4149c1.9731-1.9749 2.472-2.4149 2.7378-2.4149h0.32503v-14.547l-5.5937-5.5974h-28.861l-5.5974 5.5937v10.998l0.73626 0.07413c0.40494 0.04077 3.2013 0.05824 6.214 0.03883l5.4778-0.03531v-7.6571l-0.2945 0.03325c-0.25756 0.02907-0.2063-0.0559 0.40862-0.67736l0.70312-0.7106h13.68l0.69943 0.70681c0.66906 0.67611 0.68553 0.70681 0.37917 0.70681h-0.32027v7.4939l-0.62318 0.75223h-7.68l-5.5974 5.5937v9.9561h12.487zm33.233 23.445-0.63488-0.69114 30.91-0.0318c17-0.0175 30.933-0.0172 30.962 7.1e-4 0.0287 0.0179-0.2612 0.34921-0.64422 0.73626l-0.69638 0.70373-59.262-0.0266zm69.931 0.0361-0.67818-0.67303 1e-3 -29.774 4.6e-4 -29.774h1.2958v59.372h59.372v-60.719l1.4136 1.3989v59.386l-1.4789 1.4657-59.248-8e-3 -0.67817-0.67303zm3.935-2.9153c-0.21726-0.0943-0.45581-0.13677-0.5301-0.0943-0.0743 0.0425-0.0965 0.0346-0.0494-0.0175s-0.0722-0.2745-0.26506-0.49419c-0.19288-0.2197-0.35071-0.45946-0.35071-0.53279 0-0.0733-0.0304-0.10292-0.0676-0.0657-0.0372 0.0372 0.0137 0.22482 0.1131 0.417s0.14305 0.38706 0.097 0.43307c-0.046 0.046-0.0112 0.066 0.0774 0.0444s0.17813 0.0667 0.19899 0.19633c0.0789 0.49008-0.75473-0.61933-0.94415-1.2564-0.23622-0.79456-0.14525-1.4551 0.29629-2.1514 0.503-0.79314 1.1527-1.171 2.1061-1.2249 1.3776-0.0778 2.4046 0.64139 2.7884 1.9527 0.16637 0.56843 0.16427 0.67325-0.0259 1.2958l-0.20694 0.67735-0.0804-0.4123c-0.0442-0.22677-0.0874-0.31969-0.0959-0.20649-0.0242 0.3205-0.84806 1.1625-1.3702 1.4003-0.56598 0.25776-1.1557 0.27138-1.6908 0.039zm51.202 0.0643c-0.50869-0.15334-1.0213-0.57438-1.2681-1.0416-0.12559-0.23775-0.23069-0.37341-0.23355-0.30146-3e-3 0.072 0.12572 0.32375 0.28575 0.55956 0.16002 0.23581 0.23305 0.42874 0.16227 0.42874-0.0812 0-0.0698 0.076 0.031 0.20615 0.11937 0.15415 0.0891 0.14672-0.12007-0.0294-0.66453-0.55972-1.0261-2.0087-0.71095-2.849 0.41047-1.0944 1.4149-1.8041 2.5531-1.8041 1.1409 0 1.9587 0.52853 2.4607 1.5903 0.30921 0.65406 0.34364 1.0665 0.14751 1.767-0.12663 0.45228-0.13625 0.45962-0.23977 0.18283l-0.10785-0.28837-0.17339 0.34727c-0.49891 0.99922-1.7395 1.5478-2.7866 1.2322zm-122.32-1.3523c-0.21744-0.5204-0.21598-0.9649 0.0052-1.5918 0.17425-0.49388 0.1453-0.77589-0.06624-0.64515-0.06031 0.0373-0.10966 0.0158-0.10966-0.0478s0.21672-0.30108 0.4816-0.5278c1.0113-0.86565 2.5008-0.83009 3.5054 0.0837 0.38444 0.34969 0.79308 1.1457 0.49292 0.96022-0.13684-0.0846-0.29423 0.4612-0.18429 0.63908 0.04232 0.0685 0.03356 0.1245-0.01947 0.1245s-0.16505-0.1099-0.24893-0.24422c-0.20832-0.33358-1.0405-0.69251-1.6123-0.69543-1.0144-5e-3 -1.9945 0.89183-1.9997 1.8301-0.0016 0.28731-0.01886 0.52255-0.03836 0.52276-0.0195 2.3e-4 -0.11227-0.18346-0.20615-0.40815zm51.092 0.10848c-0.18887-0.41454-0.17124-1.3919 0.034-1.8831 0.16649-0.39845 0.12626-0.47845-0.21066-0.41896-0.25558 0.0451 0.4667-0.72899 0.87412-0.93684 0.94671-0.48297 1.9158-0.41715 2.8202 0.19156 0.52253 0.35169 0.90278 0.9578 0.71727 1.1433-0.0719 0.0719-0.13074 0.29746-0.13074 0.50124v0.37051l-0.45788-0.43558c-0.66872-0.63614-1.5567-0.76714-2.3739-0.35023-0.60167 0.30695-1.082 1.0268-1.0982 1.646-7e-3 0.25964-0.018 0.47207-0.0249 0.47207-7e-3 0-0.074-0.13502-0.14924-0.30004zm40.946-3.5716c-0.33477-0.28169-0.48097-0.54627-0.63001-1.1401l-0.0726-0.28931h12.395l5e-3 -3.3868c4e-3 -3.0749 0.0205-3.3503 0.1767-2.9904 0.13817 0.31823 0.1721 1.0862 0.1721 3.8949v3.4985l-0.36113 0.346-0.36115 0.34599-10.979 0.01-0.34396-0.28942zm-70.357-1.0761-0.33858-0.3534h6.1477c3.3812 0 6.1477 0.029 6.1477 0.0645s-0.14578 0.19286-0.32395 0.34968l-0.32396 0.28513-10.97 8e-3zm70.307-10.043c-0.31484-0.33416-0.62792-0.97534-0.62792-1.286 0-0.0565 2.7509-0.0995 6.1551-0.0961l6.1551 6e-3v-6.5462l-0.26506 0.0094c-0.14578 0.0051-0.26505-0.01267-0.26505-0.03959s0.30349-0.33594 0.67444-0.68671l0.67442-0.63777h7.5473l2.4128-2.4149c1.9731-1.9749 2.472-2.4149 2.7378-2.4149h0.32503l9e-3 -7.2742c8e-3 -6.2331 0.0317-7.2152 0.16774-6.8619 0.12672 0.32904 0.16059 1.8993 0.16774 7.7758l9e-3 7.3635-5.4796 5.4759h-7.5783l-0.72489 0.60995v6.6475l-0.38846 0.37651-0.38847 0.37651h-10.957l-0.36071-0.38285zm-70.306-1.0013-0.3494-0.32395 6.112-0.0305c3.3616-0.0168 6.1392-3e-3 6.1724 0.0299 0.0332 0.0332-0.0639 0.19276-0.2158 0.35448l-0.27623 0.29404h-11.094zm11.484-6.9828c0-0.04403 0.29316-0.35291 0.65148-0.68641l0.65149-0.60635h7.5932l2.4128-2.4149c1.8529-1.8546 2.4811-2.4149 2.7074-2.4149 0.24419 0-0.17899 0.47394-2.4718 2.7683l-2.7664 2.7683h-7.559l-0.26539 0.28249c-0.24527 0.26108-0.95369 0.4865-0.95369 0.30346zm45.034-8.2725c-0.27311-0.28584-0.73998-1.1117-0.74067-1.3102-3e-5 -0.0083 2.7367 0.0013 6.0817 0.02126 3.345 0.01998 6.1413 0.0135 6.2141-0.01439 0.0951-0.03643 0.12315-1.1294 0.0997-3.8825l-0.0326-3.8318-0.26193 0.06237c-0.19337 0.04604-0.0779-0.12665 0.44119-0.65975l0.70312-0.72212h13.68l0.69944 0.70681c0.66905 0.67611 0.68552 0.70681 0.37916 0.70681-0.26308 0-0.32026 0.05258-0.32026 0.2945 0 0.28944-0.17745 0.4101-0.25609 0.17414-0.0267-0.08015-2.3592-0.11994-6.9818-0.1191l-6.9416 0.0013-0.33177 0.31784-0.33175 0.31784v7.5668l-0.77692 0.75303h-10.957l-0.36581-0.38286zm-70.361-0.9714c-0.15193-0.16172-0.25394-0.3075-0.22669-0.32395 0.02725-0.01645 2.7734-0.01437 6.1026 0.0046l6.0531 0.03455-0.27188 0.2894-0.27188 0.2894h-11.109zm12.207-8.6736 0.68486-0.69208h13.68l1.3989 1.4136h-0.35712c-0.24304 0-0.4653-0.1129-0.69571-0.3534l-0.33859-0.3534h-13.812l-0.32447 0.33868c-0.18982 0.19813-0.44804 0.33868-0.62224 0.33868-0.27456 0-0.24439-0.05394 0.3871-0.69208zm51.133-9.3445c-0.52457-0.18708-0.85336-0.45656-1.1572-0.94844-0.12007-0.19437-0.2185-0.29894-0.21875-0.23236 0 0.06657 0.0822 0.23895 0.18309 0.38306 0.10094 0.14411 0.1512 0.31433 0.11168 0.37827-0.04 0.0648 4e-3 0.08722 0.0991 0.05066 0.094-0.03607 0.20591-9e-3 0.24868 0.06025 0.0428 0.06921 0.0185 0.12583-0.0539 0.12583s-0.0974 0.06626-0.0554 0.14725c0.042 0.08099-0.11142-0.04803-0.3409-0.28671-0.58895-0.61257-0.85221-1.5496-0.66022-2.3499 0.30193-1.2586 1.3504-2.1049 2.6077-2.1049 1.2965 0 2.2806 0.73474 2.6431 1.9732 0.16617 0.56773 0.16417 0.67402-0.0243 1.2958-0.19466 0.64212-0.20923 0.65898-0.27989 0.32395-0.0686-0.32527-0.0814-0.33317-0.16091-0.09922-0.13569 0.39939-1.0669 1.1877-1.567 1.3265-0.58151 0.16147-0.82199 0.1539-1.3748-0.04327zm50.978-0.04532c-0.26375-0.12363-0.64807-0.42925-0.85406-0.67915s-0.37453-0.3924-0.37453-0.31667c0 0.07573 0.0566 0.17268 0.12584 0.21546 0.0692 0.04277 0.0963 0.15468 0.0602 0.24867-0.0361 0.094-0.0168 0.14078 0.0427 0.10396 0.11953-0.07388 0.28136 0.13339 0.31864 0.40811 0.0132 0.09719-0.17452-0.04461-0.41713-0.3151-0.93612-1.0437-0.94768-2.3989-0.0296-3.4714 1.2281-1.4348 3.536-1.1871 4.4001 0.4721 0.35787 0.68722 0.41509 1.2943 0.19582 2.0775-0.12451 0.44474-0.13781 0.45548-0.23665 0.19127l-0.10473-0.27994-0.26509 0.39336c-0.65984 0.97914-1.9136 1.3962-2.8616 0.95183zm-122.16-1.2527c-0.30214-0.72313-0.16812-1.5307 0.37568-2.2636 0.29388-0.39608 0.37098-0.69754 0.14223-0.55617-0.08828 0.05456-0.10385 0.03203-0.04437-0.06421 0.14774-0.23904 1.0283-0.58955 1.4881-0.59236 0.85505-0.0052 1.8044 0.50988 2.2302 1.2101 0.19926 0.32765 0.20216 0.37334 0.03162 0.49805-0.12305 0.08997-0.16715 0.24516-0.12795 0.45022 0.0329 0.1721 0.04474 0.31292 0.02631 0.31292s-0.18754-0.15404-0.3758-0.3423c-0.59367-0.59367-1.6161-0.75698-2.3605-0.37705-0.73014 0.37265-1.2644 1.1886-1.1754 1.7951 0.06594 0.44928-0.0025 0.42626-0.21013-0.0707zm51.094 0.018c-0.29236-0.69836-0.10639-1.697 0.44704-2.4006 0.29336-0.37295 0.30638-0.55651 0.0326-0.45949-0.12222 0.04331-0.0865-0.02054 0.0876-0.15684 1.1427-0.89414 3.2614-0.35199 3.7592 0.96194 0.0913 0.2409 0.0867 0.31565-0.0178 0.2945-0.078-0.01577-0.16935 0.15449-0.20601 0.38397-0.0626 0.39202-0.0728 0.39983-0.20792 0.15873-0.19954-0.35616-1.0697-0.74773-1.6616-0.74773-0.61599 0-1.0485 0.21562-1.5281 0.76185-0.35408 0.40326-0.43337 0.59075-0.52474 1.2408l-0.0414 0.2945z" fill="#034aa3"/>
   <path d="m5.4359 122.28-0.6769-0.7312-0.00137-29.732-0.00137-29.732 1.3492-1.3634h59.268l1.4657 1.4789v59.372l-1.4789 1.4657-59.248-0.0276zm36.547-12.459v-3.4401l-0.37651-0.38846-0.37651-0.38847h-10.933l-0.40052 0.40053-0.40052 0.40052v6.856h12.487zm0-10.945v-3.3122l-0.2945 0.0563c-0.16198 0.03096-0.2945 0.01844-0.2945-0.02782 0-0.04627 0.29317-0.35698 0.65149-0.69047l0.65149-0.60635h7.5932l2.4128-2.4149c1.9731-1.9749 2.472-2.4149 2.7378-2.4149h0.32503v-14.547l-5.5937-5.5974h-28.861l-5.5974 5.5937v10.998l0.73626 0.07413c0.40494 0.04077 3.2013 0.05824 6.214 0.03883l5.4778-0.03531v-7.6571l-0.2945 0.03325c-0.25756 0.02907-0.2063-0.0559 0.40862-0.67736l0.70312-0.7106h13.68l0.69943 0.70681c0.66906 0.67611 0.68553 0.70681 0.37917 0.70681h-0.32027v7.4939l-0.62318 0.75223h-7.68l-5.5974 5.5937v9.9561h12.487zm33.233 23.445-0.63488-0.69114 30.91-0.0318c17-0.0175 30.933-0.0172 30.962 7.1e-4 0.0287 0.0179-0.2612 0.34921-0.64422 0.73626l-0.69638 0.70373-59.262-0.0266zm70.013 4e-3 -0.69261-0.69992 0.58532 0.0167c0.54315 0.0155 0.55498 0.0219 0.1644 0.0884l-0.4209 0.0716 0.90072 0.92971v-1.102l30.304-0.0316c16.667-0.0174 30.328-0.017 30.357 8.3e-4 0.0287 0.0179-0.2569 0.34486-0.63466 0.72659l-0.68681 0.69407-59.184 6e-3 -0.69263-0.69992zm-67.264-4.1713c-0.21744-0.5204-0.21598-0.9649 0.0052-1.5918 0.17425-0.49388 0.1453-0.77589-0.06624-0.64515-0.06031 0.0373-0.10966 0.0158-0.10966-0.0478s0.21672-0.30108 0.4816-0.5278c1.0113-0.86565 2.5008-0.83009 3.5054 0.0837 0.38444 0.34969 0.79308 1.1457 0.49292 0.96022-0.13684-0.0846-0.29423 0.4612-0.18429 0.63908 0.04232 0.0685 0.03356 0.1245-0.01947 0.1245s-0.16505-0.1099-0.24893-0.24422c-0.20832-0.33358-1.0405-0.69251-1.6123-0.69543-1.0144-5e-3 -1.9945 0.89183-1.9997 1.8301-0.0016 0.28731-0.01886 0.52255-0.03836 0.52276-0.0195 2.3e-4 -0.11227-0.18346-0.20615-0.40815zm51.092 0.10848c-0.18887-0.41454-0.17124-1.3919 0.034-1.8831 0.16649-0.39845 0.12626-0.47845-0.21066-0.41896-0.25558 0.0451 0.4667-0.72899 0.87412-0.93684 0.94671-0.48297 1.9158-0.41715 2.8202 0.19156 0.52253 0.35169 0.90278 0.9578 0.71727 1.1433-0.0719 0.0719-0.13074 0.29746-0.13074 0.50124v0.37051l-0.45788-0.43558c-0.66872-0.63614-1.5567-0.76714-2.3739-0.35023-0.60167 0.30695-1.082 1.0268-1.0982 1.646-7e-3 0.25964-0.018 0.47207-0.0249 0.47207-7e-3 0-0.074-0.13502-0.14924-0.30004zm18.924 6e-3c-0.2627-0.85098-0.17423-1.5712 0.26954-2.1944 0.18224-0.25593 0.19393-0.33508 0.0653-0.44181-0.0862-0.0715-0.18139-0.11724-0.2116-0.10161-0.0302 0.0156 0.10085-0.11372 0.29123-0.28745 0.41629-0.3799 1.337-0.6232 1.9344-0.51114 0.75722 0.14205 1.5372 0.6406 1.8183 1.1621 0.10176 0.18883 0.0828 0.20641-0.14485 0.13416-0.27875-0.0885-0.28101-0.0507-0.0462 0.76766l0.0845 0.2945-0.26837-0.27803c-0.38198-0.39572-0.9572-0.60548-1.6604-0.60548-1.0466 0-1.8642 0.72365-1.9931 1.7642-0.0464 0.37455-0.0876 0.46291-0.13875 0.29732zm50.977-0.33142c-0.1278-0.61901-0.0106-1.3492 0.27966-1.7418 0.22817-0.30862 0.22746-0.77064-1e-3 -0.62946-0.0573 0.0354-0.0735-0.0155-0.036-0.11307 0.0789-0.20568 0.87284-0.60284 1.4364-0.71856 0.63361-0.1301 1.4842 0.14324 2.0813 0.66882 0.29401 0.2588 0.53456 0.52554 0.53456 0.59275 0 0.0782-0.0588 0.0735-0.16295-0.013-0.26248-0.21783-0.32626 0.15177-0.11443 0.66306l0.18423 0.44464-0.27739-0.25127c-0.46283-0.41927-1.028-0.64561-1.6236-0.65023-0.67927-5e-3 -1.1429 0.21542-1.6385 0.77984-0.34145 0.38889-0.40254 0.52632-0.52537 1.1819-0.0297 0.15855-0.0745 0.0887-0.1369-0.21361zm-99.311-4.3222-0.33858-0.3534h6.1477c3.3812 0 6.1477 0.029 6.1477 0.0645s-0.14578 0.19286-0.32395 0.34968l-0.32396 0.28513-10.97 8e-3zm69.974 0-0.33859-0.3534h12.34l-0.33859 0.3534-0.33858 0.35341h-10.985zm-69.972-11.044-0.3494-0.32395 6.112-0.0305c3.3616-0.0168 6.1392-3e-3 6.1724 0.0299 0.0332 0.0332-0.0639 0.19276-0.2158 0.35448l-0.27623 0.29404h-11.094zm69.972-0.0294-0.33859-0.3534h6.0888c3.3488 0 6.087 0.0398 6.0849 0.0884-2e-3 0.0486-0.10342 0.20763-0.22503 0.35341l-0.22112 0.26505h-11.05zm-58.488-6.9533c0-0.04403 0.29316-0.35291 0.65148-0.68641l0.65149-0.60635h7.5932l2.4128-2.4149c1.8529-1.8546 2.4811-2.4149 2.7074-2.4149 0.24419 0-0.17899 0.47394-2.4718 2.7683l-2.7664 2.7683h-7.559l-0.26539 0.28249c-0.24527 0.26108-0.95369 0.4865-0.95369 0.30346zm69.974 0.04144c0-0.02124 0.30337-0.33012 0.67417-0.68641l0.67415-0.64779h7.5478l2.4128-2.4149c1.8529-1.8546 2.4812-2.4149 2.7074-2.4149 0.24419 0-0.17899 0.47394-2.4718 2.7683l-2.7664 2.7683h-7.559l-0.26538 0.28249c-0.21424 0.22804-0.9537 0.49546-0.9537 0.3449zm-95.301-9.2854c-0.15193-0.16172-0.25394-0.3075-0.22669-0.32395 0.02725-0.01645 2.7734-0.01437 6.1026 0.0046l6.0531 0.03455-0.27188 0.2894-0.27188 0.2894h-11.109zm69.974 0c-0.15193-0.16172-0.25393-0.3075-0.22669-0.32395 0.0272-0.01645 2.7734-0.01437 6.1026 0.0046l6.0531 0.03455-0.54376 0.57881h-11.109l-0.27623-0.294zm-57.767-8.6736 0.68486-0.69208h13.68l1.3989 1.4136h-0.35712c-0.24304 0-0.4653-0.1129-0.69571-0.3534l-0.33859-0.3534h-13.812l-0.32447 0.33868c-0.18982 0.19813-0.44804 0.33868-0.62224 0.33868-0.27456 0-0.24439-0.05394 0.3871-0.69208zm69.973 7.07e-4 0.68551-0.69274h13.68l0.69944 0.70681 0.69943 0.70681h-0.35713c-0.24303 0-0.4653-0.1129-0.69571-0.3534l-0.33858-0.3534h-6.9213c-4.5612 0-6.9465 0.04082-6.9953 0.11972-0.0407 0.06585-0.13152 0.08416-0.20185 0.0407-0.0713-0.04409-0.0944-0.02481-0.0521 0.04363 0.10008 0.16193-0.13575 0.33883-0.5519 0.41397-0.31219 0.05638-0.28762 0.01196 0.34972-0.6321zm-90.02-10.643c-0.30214-0.72313-0.16812-1.5307 0.37568-2.2636 0.29388-0.39608 0.37098-0.69754 0.14223-0.55617-0.08828 0.05456-0.10385 0.03203-0.04437-0.06421 0.14774-0.23904 1.0283-0.58955 1.4881-0.59236 0.85505-0.0052 1.8044 0.50988 2.2302 1.2101 0.19926 0.32765 0.20216 0.37334 0.03162 0.49805-0.12305 0.08997-0.16715 0.24516-0.12795 0.45022 0.0329 0.1721 0.04474 0.31292 0.02631 0.31292s-0.18754-0.15404-0.3758-0.3423c-0.59367-0.59367-1.6161-0.75698-2.3605-0.37705-0.73014 0.37265-1.2644 1.1886-1.1754 1.7951 0.06594 0.44928-0.0025 0.42626-0.21013-0.0707zm51.094 0.018c-0.29236-0.69836-0.10639-1.697 0.44704-2.4006 0.29336-0.37295 0.30638-0.55651 0.0326-0.45949-0.12222 0.04331-0.0865-0.02054 0.0876-0.15684 1.1427-0.89414 3.2614-0.35199 3.7592 0.96194 0.0913 0.2409 0.0867 0.31565-0.0178 0.2945-0.078-0.01577-0.16935 0.15449-0.20601 0.38397-0.0626 0.39202-0.0728 0.39983-0.20792 0.15873-0.19954-0.35616-1.0697-0.74773-1.6616-0.74773-0.61599 0-1.0485 0.21562-1.5281 0.76185-0.35408 0.40326-0.43337 0.59075-0.52474 1.2408l-0.0414 0.2945zm69.965-0.09826c-0.27254-0.78181-0.0165-1.7424 0.62084-2.3295 0.32879-0.30285 0.40764-0.5948 0.16279-0.60264-0.081-0.0026 0.0118-0.09333 0.20616-0.20164 0.58443-0.32566 1.6562-0.27016 2.3212 0.12022 0.51738 0.30374 0.91839 0.71589 0.91839 0.94392 0 0.0542-0.053 0.06578-0.1178 0.02574-0.25191-0.15569-0.33494 0.07435-0.16961 0.47 0.23927 0.5727 0.21424 0.61703-0.15435 0.27325-1.1496-1.0722-2.7346-0.77291-3.4665 0.65456-0.1425 0.27795-0.20602 0.56483-0.16299 0.73626 0.10208 0.40672-6e-3 0.34485-0.15807-0.09011zm-51.039 0.19428c-0.36525-0.60776-0.14625-1.6888 0.50073-2.4717 0.504-0.60991 0.57121-0.79393 0.25483-0.6977-0.11339 0.03449-0.0471-0.03141 0.14725-0.14644 0.94788-0.56094 2.7359-0.03605 3.2696 0.95985 0.11277 0.2104 0.10545 0.21843-0.0683 0.07508-0.16663-0.13745-0.20549-0.13213-0.27037 0.03696-0.0417 0.10861-0.0158 0.32912 0.0575 0.49002 0.21758 0.47753 0.15326 0.56914-0.17155 0.24433-0.40994-0.40994-1.0069-0.58951-1.754-0.52756-0.93475 0.07752-1.6506 0.73083-1.8084 1.6504-0.0476 0.27751-0.11844 0.45155-0.15737 0.38676z" fill="#f00000"/>
   <path d="m5.4354 122.28-0.67736-0.73167v-59.412h1.2967l-0.029909 29.686-0.029909 29.686h59.431l0.02671-29.715c0.01469-16.343 0.02794-29.992 0.02945-30.331l0.0027-0.61551 1.3547 1.3414v59.386l-1.4789 1.4657-59.248-0.0276zm0.1767-0.85528c-0.14578-0.0281-0.38433-0.0281-0.53011 0-0.14578 0.0281-0.026505 0.0511 0.26505 0.0511 0.29156 0 0.41083-0.023 0.26505-0.0511zm69.604 0.89682-0.63488-0.69114 30.91-0.0318c17-0.0175 30.933-0.0172 30.962 7.1e-4 0.0287 0.0179-0.2612 0.34921-0.64422 0.73626l-0.69638 0.70373-59.262-0.0266zm70.013 4e-3 -0.69261-0.69992 0.58532 0.0167c0.54315 0.0155 0.55498 0.0219 0.1644 0.0884l-0.4209 0.0716 0.90072 0.92971v-1.102l30.304-0.0316c16.667-0.0174 30.328-0.017 30.357 8.3e-4 0.0287 0.0179-0.2569 0.34486-0.63466 0.72659l-0.68681 0.69407-59.184 6e-3 -0.69263-0.69992zm-135.8-2.8743c-0.57837-0.20622-0.99666-0.59304-1.2551-1.1607-0.17528-0.38497-0.21349-0.41435-0.26798-0.20599-0.034952 0.13366-0.028735 0.2215 0.013816 0.1952s0.077365 0.0797 0.077365 0.23544c0 0.15579-0.012541 0.28326-0.027869 0.28326s-0.11349-0.19879-0.21814-0.44176c-0.56812-1.319 0.10716-2.9599 1.4497-3.5224 0.47012-0.19701 1.5605-0.20646 2.0009-0.0173 1.2791 0.54935 1.9908 1.8797 1.6281 3.0437-0.09665 0.31021-0.16697 0.41979-0.17162 0.26745-0.01141-0.37364-0.20582-0.4381-0.29152-0.0966-0.10897 0.43419-0.76973 1.1285-1.3057 1.372-0.56 0.2544-1.0152 0.26775-1.6319 0.0479zm50.847-0.12244c-0.63881-0.32395-1.0502-0.83355-1.2229-1.515-0.07735-0.30513-0.08668-0.27187-0.05311 0.18945 0.023 0.31604-0.0097 0.55955-0.07521 0.55955-0.06376 0-0.09399-0.0658-0.06719-0.1462s-0.02179-0.21672-0.10798-0.30291c-0.23005-0.23005-0.18999-1.2949 0.06952-1.848 0.47622-1.0151 1.3693-1.5852 2.4832-1.5852 1.1703 0 2.0952 0.65867 2.5324 1.8034 0.21211 0.55541 0.17259 1.5237-0.06827 1.6726-0.06265 0.0387-0.09935 7e-3 -0.08154-0.0709 0.0178-0.0777-0.02064-0.15906-0.08543-0.1808-0.06479-0.0217-0.22382 0.18333-0.3534 0.4557-0.3093 0.65011-1.0078 1.1299-1.7678 1.2143-0.48462 0.0538-0.69641 0.0104-1.2022-0.24606zm17.689-1.1745c-0.21744-0.5204-0.21598-0.9649 0.0052-1.5918 0.17425-0.49388 0.1453-0.77589-0.06624-0.64515-0.06031 0.0373-0.10966 0.0158-0.10966-0.0478s0.21672-0.30108 0.4816-0.5278c1.0113-0.86565 2.5008-0.83009 3.5054 0.0837 0.38444 0.34969 0.79308 1.1457 0.49292 0.96022-0.13684-0.0846-0.29423 0.4612-0.18429 0.63908 0.04232 0.0685 0.03356 0.1245-0.01947 0.1245s-0.16505-0.1099-0.24893-0.24422c-0.20832-0.33358-1.0405-0.69251-1.6123-0.69543-1.0144-5e-3 -1.9945 0.89183-1.9997 1.8301-0.0016 0.28731-0.01886 0.52255-0.03836 0.52276-0.0195 2.3e-4 -0.11227-0.18346-0.20615-0.40815zm51.092 0.10848c-0.18887-0.41454-0.17124-1.3919 0.034-1.8831 0.16649-0.39845 0.12626-0.47845-0.21066-0.41896-0.25558 0.0451 0.4667-0.72899 0.87412-0.93684 0.94671-0.48297 1.9158-0.41715 2.8202 0.19156 0.52253 0.35169 0.90278 0.9578 0.71727 1.1433-0.0719 0.0719-0.13074 0.29746-0.13074 0.50124v0.37051l-0.45788-0.43558c-0.66872-0.63614-1.5567-0.76714-2.3739-0.35023-0.60167 0.30695-1.082 1.0268-1.0982 1.646-7e-3 0.25964-0.018 0.47207-0.0249 0.47207-7e-3 0-0.074-0.13502-0.14924-0.30004zm18.924 6e-3c-0.2627-0.85098-0.17423-1.5712 0.26954-2.1944 0.18224-0.25593 0.19393-0.33508 0.0653-0.44181-0.0862-0.0715-0.18139-0.11724-0.2116-0.10161-0.0302 0.0156 0.10085-0.11372 0.29123-0.28745 0.41629-0.3799 1.337-0.6232 1.9344-0.51114 0.75722 0.14205 1.5372 0.6406 1.8183 1.1621 0.10176 0.18883 0.0828 0.20641-0.14485 0.13416-0.27875-0.0885-0.28101-0.0507-0.0462 0.76766l0.0845 0.2945-0.26837-0.27803c-0.38198-0.39572-0.9572-0.60548-1.6604-0.60548-1.0466 0-1.8642 0.72365-1.9931 1.7642-0.0464 0.37455-0.0876 0.46291-0.13875 0.29732zm50.977-0.33142c-0.1278-0.61901-0.0106-1.3492 0.27966-1.7418 0.22817-0.30862 0.22746-0.77064-1e-3 -0.62946-0.0573 0.0354-0.0735-0.0155-0.036-0.11307 0.0789-0.20568 0.87284-0.60284 1.4364-0.71856 0.63361-0.1301 1.4842 0.14324 2.0813 0.66882 0.29401 0.2588 0.53456 0.52554 0.53456 0.59275 0 0.0782-0.0588 0.0735-0.16295-0.013-0.26248-0.21783-0.32626 0.15177-0.11443 0.66306l0.18423 0.44464-0.27739-0.25127c-0.46283-0.41927-1.028-0.64561-1.6236-0.65023-0.67927-5e-3 -1.1429 0.21542-1.6385 0.77984-0.34145 0.38889-0.40254 0.52632-0.52537 1.1819-0.0297 0.15855-0.0745 0.0887-0.1369-0.21361zm-168.78-3.3503c-0.16948-0.17817-0.34574-0.48298-0.39169-0.67735-0.04595-0.19438-0.13574-0.41967-0.19953-0.50066-0.09248-0.11741 1.1523-0.14725 6.1419-0.14725h6.2579l9e-3 -3.3868c0.0079-2.9721 0.0284-3.3363 0.16774-2.9745 0.11942 0.3101 0.161 1.2722 0.16774 3.881l9e-3 3.4687-0.63309 0.6608h-11.221zm69.472-0.97186-0.33858-0.3534h6.1477c3.3812 0 6.1477 0.029 6.1477 0.0645s-0.14578 0.19286-0.32395 0.34968l-0.32396 0.28513-10.97 8e-3zm69.974 0-0.33859-0.3534h12.34l-0.33859 0.3534-0.33858 0.35341h-10.985zm-139.32-9.9912c-0.34153-0.28738-0.48772-0.55031-0.63728-1.1462l-0.07261-0.28931h12.395v-6.6243l-0.2945 0.0563c-0.16198 0.03096-0.2945 0.01844-0.2945-0.02782 0-0.04627 0.29317-0.35698 0.65149-0.69047l0.65149-0.60635h7.5932l2.4128-2.4149c1.9731-1.9749 2.472-2.4149 2.7378-2.4149h0.32503l0.0096-7.2153c0.0082-6.2169 0.03196-7.1664 0.17139-6.8619 0.13154 0.28728 0.16282 1.7312 0.16714 7.7169l0.0053 7.3635-5.4796 5.4759h-7.6701l-0.63309 0.6608v6.5988l-0.36113 0.346-0.36113 0.34599-10.965 0.023-0.35123-0.29554zm69.35-1.0527-0.3494-0.32395 6.112-0.0305c3.3616-0.0168 6.1392-3e-3 6.1724 0.0299 0.0332 0.0332-0.0639 0.19276-0.2158 0.35448l-0.27623 0.29404h-11.094zm69.972-0.0294-0.33859-0.3534h6.0888c3.3488 0 6.087 0.0398 6.0849 0.0884-2e-3 0.0486-0.10342 0.20763-0.22503 0.35341l-0.22112 0.26505h-11.05zm-58.488-6.9533c0-0.04403 0.29316-0.35291 0.65148-0.68641l0.65149-0.60635h7.5932l2.4128-2.4149c1.8529-1.8546 2.4811-2.4149 2.7074-2.4149 0.24419 0-0.17899 0.47394-2.4718 2.7683l-2.7664 2.7683h-7.559l-0.26539 0.28249c-0.24527 0.26108-0.95369 0.4865-0.95369 0.30346zm69.974 0.04144c0-0.02124 0.30337-0.33012 0.67417-0.68641l0.67415-0.64779h7.5478l2.4128-2.4149c1.8529-1.8546 2.4812-2.4149 2.7074-2.4149 0.24419 0-0.17899 0.47394-2.4718 2.7683l-2.7664 2.7683h-7.559l-0.26538 0.28249c-0.21424 0.22804-0.9537 0.49546-0.9537 0.3449zm-164.66-8.3144c-0.20433-0.21081-0.44627-0.59514-0.53765-0.85406l-0.16615-0.47077h12.397v-7.6571l-0.2945 0.03325c-0.25756 0.02907-0.2063-0.0559 0.40862-0.67736l0.70312-0.7106h13.68l0.69943 0.70681c0.66906 0.67611 0.68553 0.70681 0.37917 0.70681-0.26386 0-0.32027 0.05234-0.32027 0.29722 0 0.27975-0.01558 0.28729-0.26505 0.12827-0.2224-0.14176-1.3551-0.16862-7.0386-0.16689l-6.7736 0.0021-0.76571 0.57594v7.6369l-0.73122 0.83281h-11.003l-0.3715-0.38329zm69.357-0.97096c-0.15193-0.16172-0.25394-0.3075-0.22669-0.32395 0.02725-0.01645 2.7734-0.01437 6.1026 0.0046l6.0531 0.03455-0.27188 0.2894-0.27188 0.2894h-11.109zm69.974 0c-0.15193-0.16172-0.25393-0.3075-0.22669-0.32395 0.0272-0.01645 2.7734-0.01437 6.1026 0.0046l6.0531 0.03455-0.54376 0.57881h-11.109l-0.27623-0.294zm-57.767-8.6736 0.68486-0.69208h13.68l1.3989 1.4136h-0.35712c-0.24304 0-0.4653-0.1129-0.69571-0.3534l-0.33859-0.3534h-13.812l-0.32447 0.33868c-0.18982 0.19813-0.44804 0.33868-0.62224 0.33868-0.27456 0-0.24439-0.05394 0.3871-0.69208zm69.973 7.07e-4 0.68551-0.69274h13.68l0.69944 0.70681 0.69943 0.70681h-0.35713c-0.24303 0-0.4653-0.1129-0.69571-0.3534l-0.33858-0.3534h-6.9213c-4.5612 0-6.9465 0.04082-6.9953 0.11972-0.0407 0.06585-0.13152 0.08416-0.20185 0.0407-0.0713-0.04409-0.0944-0.02481-0.0521 0.04363 0.10008 0.16193-0.13575 0.33883-0.5519 0.41397-0.31219 0.05638-0.28762 0.01196 0.34972-0.6321zm-158.44-9.2943c-0.52137-0.15649-1.0895-0.65061-1.3474-1.172-0.19848-0.40116-0.24648-0.4399-0.29853-0.24089-0.038193 0.14605-0.015113 0.20815 0.060084 0.16168 0.067154-0.0415 0.10064-0.0111 0.07442 0.06757-0.1064 0.3192-0.28539 0.15184-0.41972-0.39245-0.41229-1.6706 0.85986-3.2518 2.6162-3.2518 1.7432 0 3.0764 1.6389 2.5936 3.1881-0.09654 0.30977-0.16608 0.41749-0.17075 0.2645-0.01141-0.37364-0.20582-0.4381-0.29152-0.09665-0.10897 0.43419-0.76973 1.1285-1.3057 1.372-0.50458 0.22923-0.97595 0.2604-1.5106 0.09991zm51.008-0.050885c-0.77303-0.2757-1.3251-0.92155-1.4875-1.7401l-0.09999-0.50413 0.01298 0.60981c0.0071 0.3354 0.05402 0.58444 0.10419 0.55344 0.05016-0.031 0.05706 0.03262 0.01532 0.14138-0.1445 0.37657-0.44257-0.42434-0.44169-1.1868 0.0018-1.5489 1.1364-2.652 2.7253-2.6494 1.6503 0.0027 2.8773 1.5023 2.57 3.1408-0.08066 0.42994-0.08949 0.43702-0.22625 0.18146-0.13914-0.25998-0.14692-0.25549-0.34801 0.20027-0.25814 0.58509-0.87917 1.1382-1.4586 1.2991-0.57214 0.15888-0.81465 0.15075-1.3657-0.04579zm17.407-1.2981c-0.30214-0.72313-0.16812-1.5307 0.37568-2.2636 0.29388-0.39608 0.37098-0.69754 0.14223-0.55617-0.08828 0.05456-0.10385 0.03203-0.04437-0.06421 0.14774-0.23904 1.0283-0.58955 1.4881-0.59236 0.85505-0.0052 1.8044 0.50988 2.2302 1.2101 0.19926 0.32765 0.20216 0.37334 0.03162 0.49805-0.12305 0.08997-0.16715 0.24516-0.12795 0.45022 0.0329 0.1721 0.04474 0.31292 0.02631 0.31292s-0.18754-0.15404-0.3758-0.3423c-0.59367-0.59367-1.6161-0.75698-2.3605-0.37705-0.73014 0.37265-1.2644 1.1886-1.1754 1.7951 0.06594 0.44928-0.0025 0.42626-0.21013-0.0707zm51.094 0.018c-0.29236-0.69836-0.10639-1.697 0.44704-2.4006 0.29336-0.37295 0.30638-0.55651 0.0326-0.45949-0.12222 0.04331-0.0865-0.02054 0.0876-0.15684 1.1427-0.89414 3.2614-0.35199 3.7592 0.96194 0.0913 0.2409 0.0867 0.31565-0.0178 0.2945-0.078-0.01577-0.16935 0.15449-0.20601 0.38397-0.0626 0.39202-0.0728 0.39983-0.20792 0.15873-0.19954-0.35616-1.0697-0.74773-1.6616-0.74773-0.61599 0-1.0485 0.21562-1.5281 0.76185-0.35408 0.40326-0.43337 0.59075-0.52474 1.2408l-0.0414 0.2945zm69.965-0.09826c-0.27254-0.78181-0.0165-1.7424 0.62084-2.3295 0.32879-0.30285 0.40764-0.5948 0.16279-0.60264-0.081-0.0026 0.0118-0.09333 0.20616-0.20164 0.58443-0.32566 1.6562-0.27016 2.3212 0.12022 0.51738 0.30374 0.91839 0.71589 0.91839 0.94392 0 0.0542-0.053 0.06578-0.1178 0.02574-0.25191-0.15569-0.33494 0.07435-0.16961 0.47 0.23927 0.5727 0.21424 0.61703-0.15435 0.27325-1.1496-1.0722-2.7346-0.77291-3.4665 0.65456-0.1425 0.27795-0.20602 0.56483-0.16299 0.73626 0.10208 0.40672-6e-3 0.34485-0.15807-0.09011zm-51.039 0.19428c-0.36525-0.60776-0.14625-1.6888 0.50073-2.4717 0.504-0.60991 0.57121-0.79393 0.25483-0.6977-0.11339 0.03449-0.0471-0.03141 0.14725-0.14644 0.94788-0.56094 2.7359-0.03605 3.2696 0.95985 0.11277 0.2104 0.10545 0.21843-0.0683 0.07508-0.16663-0.13745-0.20549-0.13213-0.27037 0.03696-0.0417 0.10861-0.0158 0.32912 0.0575 0.49002 0.21758 0.47753 0.15326 0.56914-0.17155 0.24433-0.40994-0.40994-1.0069-0.58951-1.754-0.52756-0.93475 0.07752-1.6506 0.73083-1.8084 1.6504-0.0476 0.27751-0.11844 0.45155-0.15737 0.38676z" fill="#a10303"/>
   <path d="m5.4756 122.32-0.63715-0.69351 30.264-0.0188c16.645-0.0103 30.569-0.0319 30.942-0.0479s0.67736 4e-3 0.67736 0.0448c0 0.0407-0.30315 0.38032-0.67367 0.75474l-0.67367 0.68078-59.262-0.0266zm0.54083-0.14381c0.01489-0.27222-0.030269-0.39263-0.14725-0.39263-0.0928 0-0.16873 0.0442-0.16873 0.0982s0.061846 0.0982 0.13744 0.0982c0.075589 0 0.09776 0.0397 0.049269 0.0882s-0.15029 9e-3 -0.22621-0.0884c-0.075925-0.0971-0.21079-0.19199-0.29971-0.21091-0.088914-0.0189 0.017299 0.15126 0.23603 0.37819 0.21873 0.22692 0.39769 0.41466 0.39769 0.41721 0 3e-3 0.00966-0.17206 0.021476-0.38801zm69.2 0.14618-0.63488-0.69114 30.91-0.0318c17-0.0175 30.933-0.0172 30.962 7.1e-4 0.0287 0.0179-0.2612 0.34921-0.64422 0.73626l-0.69638 0.70373-59.262-0.0266zm70.013 4e-3 -0.69261-0.69992 0.58532 0.0167c0.54315 0.0155 0.55498 0.0219 0.1644 0.0884l-0.4209 0.0716 0.90072 0.92971v-1.102l30.304-0.0316c16.667-0.0174 30.328-0.017 30.357 8.3e-4 0.0287 0.0179-0.2569 0.34486-0.63466 0.72659l-0.68681 0.69407-59.184 6e-3 -0.69263-0.69992zm-67.264-4.1713c-0.21744-0.5204-0.21598-0.9649 0.0052-1.5918 0.17425-0.49388 0.1453-0.77589-0.06624-0.64515-0.06031 0.0373-0.10966 0.0158-0.10966-0.0478s0.21672-0.30108 0.4816-0.5278c1.0113-0.86565 2.5008-0.83009 3.5054 0.0837 0.38444 0.34969 0.79308 1.1457 0.49292 0.96022-0.13684-0.0846-0.29423 0.4612-0.18429 0.63908 0.04232 0.0685 0.03356 0.1245-0.01947 0.1245s-0.16505-0.1099-0.24893-0.24422c-0.20832-0.33358-1.0405-0.69251-1.6123-0.69543-1.0144-5e-3 -1.9945 0.89183-1.9997 1.8301-0.0016 0.28731-0.01886 0.52255-0.03836 0.52276-0.0195 2.3e-4 -0.11227-0.18346-0.20615-0.40815zm51.092 0.10848c-0.18887-0.41454-0.17124-1.3919 0.034-1.8831 0.16649-0.39845 0.12626-0.47845-0.21066-0.41896-0.25558 0.0451 0.4667-0.72899 0.87412-0.93684 0.94671-0.48297 1.9158-0.41715 2.8202 0.19156 0.52253 0.35169 0.90278 0.9578 0.71727 1.1433-0.0719 0.0719-0.13074 0.29746-0.13074 0.50124v0.37051l-0.45788-0.43558c-0.66872-0.63614-1.5567-0.76714-2.3739-0.35023-0.60167 0.30695-1.082 1.0268-1.0982 1.646-7e-3 0.25964-0.018 0.47207-0.0249 0.47207-7e-3 0-0.074-0.13502-0.14924-0.30004zm-120.87-0.27823c-0.17199-0.60064-0.092639-1.1969 0.23386-1.7573 0.24707-0.42407 0.19959-0.66487-0.11027-0.55929-0.10683 0.0364 0.00954-0.1157 0.2586-0.33799 1.0143-0.90525 2.7658-0.76545 3.6554 0.29174 0.32889 0.39086 0.43021 0.71431 0.15123 0.48278-0.22512-0.18683-0.31691-0.0408-0.18779 0.29884 0.06065 0.15953 0.11028 0.38563 0.11028 0.50245 0 0.17071-0.08158 0.13546-0.41571-0.17967-0.45794-0.4319-0.98184-0.57827-1.757-0.4909-0.85182 0.096-1.5766 0.84743-1.7165 1.7796l-0.073407 0.48916zm139.8 0.28381c-0.2627-0.85097-0.17423-1.5712 0.26954-2.1944 0.18224-0.25593 0.19393-0.33507 0.0653-0.44181-0.0862-0.0715-0.18139-0.11724-0.2116-0.1016-0.0302 0.0156 0.10085-0.11372 0.29123-0.28746 0.41629-0.3799 1.337-0.6232 1.9344-0.51114 0.75722 0.14206 1.5372 0.64061 1.8183 1.1621 0.10176 0.18882 0.0828 0.2064-0.14485 0.13416-0.27875-0.0885-0.28101-0.0507-0.0462 0.76765l0.0845 0.29451-0.26837-0.27804c-0.38198-0.39571-0.9572-0.60548-1.6604-0.60548-1.0466 0-1.8642 0.72365-1.9931 1.7642-0.0464 0.37455-0.0876 0.4629-0.13875 0.29731zm-88.716-0.098c-0.17253-0.44757-0.08336-1.3342 0.18811-1.8705 0.24086-0.47575 0.25077-0.55004 0.08835-0.66225-0.1593-0.11006-0.14488-0.15761 0.11156-0.36798 0.16198-0.13287 0.5819-0.32734 0.93315-0.43215 0.90945-0.27136 1.7351-0.0779 2.4398 0.57164 0.28299 0.26085 0.51371 0.56029 0.51272 0.66543-0.0016 0.16644-0.01656 0.16831-0.116 0.0144-0.08298-0.1284-0.11469-0.13455-0.116-0.0225-0.0011 0.0918-0.06135 0.11843-0.14906 0.0657-0.11211-0.0673-0.11607-0.0479-0.01658 0.0814 0.07187 0.0934 0.16518 0.3554 0.20735 0.58217l0.07668 0.41231-0.26625-0.32168c-0.49191-0.59431-1.822-0.88742-2.4828-0.54711-0.62113 0.3199-1.1031 0.97074-1.254 1.6934-0.06074 0.2908-0.08855 0.31518-0.157 0.13761zm139.69-0.23343c-0.1278-0.619-0.0106-1.3492 0.27966-1.7418 0.22817-0.30862 0.22746-0.77064-1e-3 -0.62946-0.0573 0.0354-0.0735-0.0155-0.036-0.11306 0.0789-0.20569 0.87284-0.60284 1.4364-0.71857 0.63361-0.1301 1.4842 0.14324 2.0813 0.66883 0.29401 0.25879 0.53456 0.52553 0.53456 0.59275 0 0.0781-0.0588 0.0735-0.16295-0.013-0.26248-0.21784-0.32626 0.15176-0.11443 0.66305l0.18423 0.44465-0.27739-0.25128c-0.46283-0.41927-1.028-0.64561-1.6236-0.65022-0.67927-5e-3 -1.1429 0.21542-1.6385 0.77984-0.34145 0.38888-0.40254 0.52631-0.52537 1.1819-0.0297 0.15855-0.0745 0.0887-0.1369-0.21362zm-169.05-4.3217-0.33858-0.3534h12.457l-0.67716 0.70681h-11.103zm69.738 0-0.33858-0.3534h6.1477c3.3812 0 6.1477 0.029 6.1477 0.0645s-0.14578 0.19286-0.32395 0.34968l-0.32396 0.28513-10.97 8e-3zm69.974 0-0.33859-0.3534h12.34l-0.33859 0.3534-0.33858 0.35341h-10.985zm-139.71-11.073-0.33858-0.3534h6.1477c3.3812 0 6.1477 0.0438 6.1477 0.0973s-0.12269 0.21252-0.27265 0.3534c-0.27195 0.25548-0.28682 0.25614-5.8091 0.25614h-5.5365zm69.74 0.0294-0.3494-0.32395 6.112-0.0305c3.3616-0.0168 6.1392-3e-3 6.1724 0.0299 0.0332 0.0332-0.0639 0.19276-0.2158 0.35448l-0.27623 0.29404h-11.094zm69.972-0.0294-0.33859-0.3534h6.0888c3.3488 0 6.087 0.0398 6.0849 0.0884-2e-3 0.0486-0.10342 0.20763-0.22503 0.35341l-0.22112 0.26505h-11.05zm-128.23-6.9533c0-0.04403 0.29317-0.35291 0.65149-0.68641l0.65149-0.60635h7.5932l2.4128-2.4149c1.8529-1.8546 2.4811-2.4149 2.7074-2.4149 0.2442 0-0.17898 0.47394-2.4718 2.7683l-2.7665 2.7683h-7.559l-0.26539 0.28249c-0.24527 0.26108-0.9537 0.4865-0.9537 0.30346zm69.738 0c0-0.04403 0.29316-0.35291 0.65148-0.68641l0.65149-0.60635h7.5932l2.4128-2.4149c1.8529-1.8546 2.4811-2.4149 2.7074-2.4149 0.24419 0-0.17899 0.47394-2.4718 2.7683l-2.7664 2.7683h-7.559l-0.26539 0.28249c-0.24527 0.26108-0.95369 0.4865-0.95369 0.30346zm69.974 0.04144c0-0.02124 0.30337-0.33012 0.67417-0.68641l0.67415-0.64779h7.5478l2.4128-2.4149c1.8529-1.8546 2.4812-2.4149 2.7074-2.4149 0.24419 0-0.17899 0.47394-2.4718 2.7683l-2.7664 2.7683h-7.559l-0.26538 0.28249c-0.21424 0.22804-0.9537 0.49546-0.9537 0.3449zm-165.04-9.2853c-0.15193-0.16172-0.25394-0.3075-0.22669-0.32395 0.02725-0.01645 2.8-0.01439 6.1616 0.0046l6.112 0.03451-0.54384 0.57889h-11.227zm69.738 0c-0.15193-0.16172-0.25394-0.3075-0.22669-0.32395 0.02725-0.01645 2.7734-0.01437 6.1026 0.0046l6.0531 0.03455-0.27188 0.2894-0.27188 0.2894h-11.109zm69.974 0c-0.15193-0.16172-0.25393-0.3075-0.22669-0.32395 0.0272-0.01645 2.7734-0.01437 6.1026 0.0046l6.0531 0.03455-0.54376 0.57881h-11.109l-0.27623-0.294zm-127.51-8.6648 0.69358-0.7009h13.68l1.3989 1.4136h-0.35713c-0.24303 0-0.4653-0.1129-0.69571-0.3534l-0.33858-0.3534h-13.785l-0.32738 0.31365c-0.18006 0.17251-0.47022 0.32888-0.64481 0.34749-0.29258 0.03119-0.26312-0.02105 0.37614-0.66705zm69.747-0.0088 0.68486-0.69208h13.68l1.3989 1.4136h-0.35712c-0.24304 0-0.4653-0.1129-0.69571-0.3534l-0.33859-0.3534h-13.812l-0.32447 0.33868c-0.18982 0.19813-0.44804 0.33868-0.62224 0.33868-0.27456 0-0.24439-0.05394 0.3871-0.69208zm69.973 7.07e-4 0.68551-0.69274h13.68l0.69944 0.70681 0.69943 0.70681h-0.35713c-0.24303 0-0.4653-0.1129-0.69571-0.3534l-0.33858-0.3534h-6.9213c-4.5612 0-6.9465 0.04082-6.9953 0.11972-0.0407 0.06585-0.13152 0.08416-0.20185 0.0407-0.0713-0.04409-0.0944-0.02481-0.0521 0.04363 0.10008 0.16193-0.13575 0.33883-0.5519 0.41397-0.31219 0.05638-0.28762 0.01196 0.34972-0.6321zm-90.02-10.643c-0.30214-0.72313-0.16812-1.5307 0.37568-2.2636 0.29388-0.39608 0.37098-0.69754 0.14223-0.55617-0.08828 0.05456-0.10385 0.03203-0.04437-0.06421 0.14774-0.23904 1.0283-0.58955 1.4881-0.59236 0.85505-0.0052 1.8044 0.50988 2.2302 1.2101 0.19926 0.32765 0.20216 0.37334 0.03162 0.49805-0.12305 0.08997-0.16715 0.24516-0.12795 0.45022 0.0329 0.1721 0.04474 0.31292 0.02631 0.31292s-0.18754-0.15404-0.3758-0.3423c-0.59367-0.59367-1.6161-0.75698-2.3605-0.37705-0.73014 0.37265-1.2644 1.1886-1.1754 1.7951 0.06594 0.44928-0.0025 0.42626-0.21013-0.0707zm-69.769-0.12158c-0.076493-0.25916-0.13908-0.55072-0.13908-0.64791 0-0.43719 0.27497-1.0866 0.65027-1.5358 0.44908-0.53751 0.51972-0.7663 0.20248-0.65582-0.16862 0.05872-0.16393 0.03913 0.025811-0.10761 0.86344-0.66779 2.4987-0.40111 3.2873 0.5361 0.34774 0.41327 0.418 0.70214 0.11001 0.45231-0.13543-0.10986-0.17096-0.11448-0.11085-0.01442 0.04926 0.08199 0.03133 0.14725-0.04043 0.14725-0.09093 0-0.09298 0.06711-7e-3 0.22786 0.27925 0.52178 0.13512 0.61844-0.34584 0.23194-0.34225-0.27504-0.62505-0.39103-1.0538-0.43223-0.77396-0.07437-1.0987 0.01914-1.6025 0.4615-0.51206 0.4496-0.66991 0.72565-0.76443 1.3369l-0.072869 0.4712zm51.115 0.04132c-0.25066-0.71905-0.11574-1.5444 0.33414-2.0439 0.11669-0.12958 0.3118-0.39208 0.43359-0.58334 0.21886-0.34372 0.2187-0.34678-0.01386-0.26476-0.23345 0.08232-0.23347 0.08157-0.0033-0.09643 0.66962-0.51788 1.8212-0.49254 2.6913 0.05923 0.5697 0.36129 1.0397 1.0227 0.72666 1.0227-0.09042 0-0.13244-0.05743-0.09339-0.12762 0.05053-0.09081 0.03078-0.09068-0.06846 4.48e-4 -0.10141 0.09313-0.10612 0.21575-0.01728 0.44942 0.20271 0.53317 0.14286 0.56934-0.32283 0.1951-0.80396-0.64608-1.8923-0.67211-2.6891-0.06432-0.47978 0.36594-0.92378 1.2373-0.8112 1.592 0.1223 0.38533-0.02694 0.26089-0.16619-0.13857zm69.748 0.09826c-0.29236-0.69836-0.10639-1.697 0.44704-2.4006 0.29336-0.37295 0.30638-0.55651 0.0326-0.45949-0.12222 0.04331-0.0865-0.02054 0.0876-0.15684 1.1427-0.89414 3.2614-0.35199 3.7592 0.96194 0.0913 0.2409 0.0867 0.31565-0.0178 0.2945-0.078-0.01577-0.16935 0.15449-0.20601 0.38397-0.0626 0.39202-0.0728 0.39983-0.20792 0.15873-0.19954-0.35616-1.0697-0.74773-1.6616-0.74773-0.61599 0-1.0485 0.21562-1.5281 0.76185-0.35408 0.40326-0.43337 0.59075-0.52474 1.2408l-0.0414 0.2945zm69.965-0.09826c-0.27254-0.78181-0.0165-1.7424 0.62084-2.3295 0.32879-0.30285 0.40764-0.5948 0.16279-0.60264-0.081-0.0026 0.0118-0.09333 0.20616-0.20164 0.58443-0.32566 1.6562-0.27016 2.3212 0.12022 0.51738 0.30374 0.91839 0.71589 0.91839 0.94392 0 0.0542-0.053 0.06578-0.1178 0.02574-0.25191-0.15569-0.33494 0.07435-0.16961 0.47 0.23927 0.5727 0.21424 0.61703-0.15435 0.27325-1.1496-1.0722-2.7346-0.77291-3.4665 0.65456-0.1425 0.27795-0.20602 0.56483-0.16299 0.73626 0.10208 0.40672-6e-3 0.34485-0.15807-0.09011zm-51.039 0.19428c-0.36525-0.60776-0.14625-1.6888 0.50073-2.4717 0.504-0.60991 0.57121-0.79393 0.25483-0.6977-0.11339 0.03449-0.0471-0.03141 0.14725-0.14644 0.94788-0.56094 2.7359-0.03605 3.2696 0.95985 0.11277 0.2104 0.10545 0.21843-0.0683 0.07508-0.16663-0.13745-0.20549-0.13213-0.27037 0.03696-0.0417 0.10861-0.0158 0.32912 0.0575 0.49002 0.21758 0.47753 0.15326 0.56914-0.17155 0.24433-0.40994-0.40994-1.0069-0.58951-1.754-0.52756-0.93475 0.07752-1.6506 0.73083-1.8084 1.6504-0.0476 0.27751-0.11844 0.45155-0.15737 0.38676z" fill="#342725"/>
  </g>
 </g>
</svg>
